solid collaborative_crystal
  facet normal -0.6092 0.6092 -0.5077
    outer loop
      vertex 0.0000 0.0000 12.0000
      vertex 10.0000 0.0000 0.0000
      vertex 0.0000 -10.0000 0.0000
    endloop
  endfacet
  facet normal 0.6092 0.6092 -0.5077
    outer loop
      vertex 0.0000 0.0000 12.0000
      vertex 0.0000 -10.0000 0.0000
      vertex -10.0000 0.0000 0.0000
    endloop
  endfacet
  facet normal 0.7544 -0.1886 -0.6287
    outer loop
      vertex 0.0000 0.0000 12.0000
      vertex -10.0000 0.0000 0.0000
      vertex 0.0000 10.0000 9.0000
    endloop
  endfacet
  facet normal -0.7544 -0.1886 -0.6287
    outer loop
      vertex 0.0000 0.0000 12.0000
      vertex 0.0000 10.0000 9.0000
      vertex 10.0000 0.0000 0.0000
    endloop
  endfacet
  facet normal -0.6783 0.6783 0.2826
    outer loop
      vertex 5.0000 0.0000 -12.0000
      vertex 0.0000 -10.0000 0.0000
      vertex 10.0000 0.0000 0.0000
    endloop
  endfacet
  facet normal 0.5298 0.5298 0.6623
    outer loop
      vertex 5.0000 0.0000 -12.0000
      vertex -10.0000 0.0000 0.0000
      vertex 0.0000 -10.0000 0.0000
    endloop
  endfacet
  facet normal 0.3759 -0.7987 0.4698
    outer loop
      vertex 5.0000 0.0000 -12.0000
      vertex 0.0000 10.0000 9.0000
      vertex -10.0000 0.0000 0.0000
    endloop
  endfacet
  facet normal -0.5713 -0.7855 0.2380
    outer loop
      vertex 5.0000 0.0000 -12.0000
      vertex 10.0000 0.0000 0.0000
      vertex 0.0000 10.0000 9.0000
    endloop
  endfacet
endsolid