solid collaborative_crystal
  facet normal -0.6092 0.6092 -0.5077
    outer loop
      vertex 0.0000 0.0000 12.0000
      vertex 10.0000 0.0000 0.0000
      vertex 0.0000 -10.0000 0.0000
    endloop
  endfacet
  facet normal -0.2481 0.7442 -0.6202
    outer loop
      vertex 0.0000 0.0000 12.0000
      vertex 0.0000 -10.0000 0.0000
      vertex -10.0000 0.0000 16.0000
    endloop
  endfacet
  facet normal -0.2481 -0.7442 -0.6202
    outer loop
      vertex 0.0000 0.0000 12.0000
      vertex -10.0000 0.0000 16.0000
      vertex 0.0000 10.0000 0.0000
    endloop
  endfacet
  facet normal -0.6092 -0.6092 -0.5077
    outer loop
      vertex 0.0000 0.0000 12.0000
      vertex 0.0000 10.0000 0.0000
      vertex 10.0000 0.0000 0.0000
    endloop
  endfacet
  facet normal -0.3971 0.3971 0.8274
    outer loop
      vertex -15.0000 0.0000 -12.0000
      vertex 0.0000 -10.0000 0.0000
      vertex 10.0000 0.0000 0.0000
    endloop
  endfacet
  facet normal 0.6103 0.7847 -0.1090
    outer loop
      vertex -15.0000 0.0000 -12.0000
      vertex -10.0000 0.0000 16.0000
      vertex 0.0000 -10.0000 0.0000
    endloop
  endfacet
  facet normal 0.6103 -0.7847 -0.1090
    outer loop
      vertex -15.0000 0.0000 -12.0000
      vertex 0.0000 10.0000 0.0000
      vertex -10.0000 0.0000 16.0000
    endloop
  endfacet
  facet normal -0.3971 -0.3971 0.8274
    outer loop
      vertex -15.0000 0.0000 -12.0000
      vertex 10.0000 0.0000 0.0000
      vertex 0.0000 10.0000 0.0000
    endloop
  endfacet
endsolid