solid collaborative_crystal
  facet normal -0.6092 0.6092 -0.5077
    outer loop
      vertex 0.0000 0.0000 12.0000
      vertex 10.0000 0.0000 0.0000
      vertex 0.0000 -10.0000 0.0000
    endloop
  endfacet
  facet normal 0.6092 0.6092 -0.5077
    outer loop
      vertex 0.0000 0.0000 12.0000
      vertex 0.0000 -10.0000 0.0000
      vertex -10.0000 0.0000 0.0000
    endloop
  endfacet
  facet normal 0.6092 -0.6092 -0.5077
    outer loop
      vertex 0.0000 0.0000 12.0000
      vertex -10.0000 0.0000 0.0000
      vertex 0.0000 10.0000 0.0000
    endloop
  endfacet
  facet normal -0.6092 -0.6092 -0.5077
    outer loop
      vertex 0.0000 0.0000 12.0000
      vertex 0.0000 10.0000 0.0000
      vertex 10.0000 0.0000 0.0000
    endloop
  endfacet
  facet normal -0.6783 0.6783 0.2826
    outer loop
      vertex 5.0000 0.0000 -12.0000
      vertex 0.0000 -10.0000 0.0000
      vertex 10.0000 0.0000 0.0000
    endloop
  endfacet
  facet normal 0.5298 0.5298 0.6623
    outer loop
      vertex 5.0000 0.0000 -12.0000
      vertex -10.0000 0.0000 0.0000
      vertex 0.0000 -10.0000 0.0000
    endloop
  endfacet
  facet normal 0.5298 -0.5298 0.6623
    outer loop
      vertex 5.0000 0.0000 -12.0000
      vertex 0.0000 10.0000 0.0000
      vertex -10.0000 0.0000 0.0000
    endloop
  endfacet
  facet normal -0.6783 -0.6783 0.2826
    outer loop
      vertex 5.0000 0.0000 -12.0000
      vertex 10.0000 0.0000 0.0000
      vertex 0.0000 10.0000 0.0000
    endloop
  endfacet
endsolid