solid collaborative_crystal
  facet normal -0.6092 0.6092 -0.5077
    outer loop
      vertex 0.0000 0.0000 12.0000
      vertex 10.0000 0.0000 0.0000
      vertex 0.0000 -10.0000 0.0000
    endloop
  endfacet
  facet normal 0.6092 0.6092 -0.5077
    outer loop
      vertex 0.0000 0.0000 12.0000
      vertex 0.0000 -10.0000 0.0000
      vertex -10.0000 0.0000 0.0000
    endloop
  endfacet
  facet normal 0.6092 -0.6092 -0.5077
    outer loop
      vertex 0.0000 0.0000 12.0000
      vertex -10.0000 0.0000 0.0000
      vertex 0.0000 10.0000 0.0000
    endloop
  endfacet
  facet normal -0.6092 -0.6092 -0.5077
    outer loop
      vertex 0.0000 0.0000 12.0000
      vertex 0.0000 10.0000 0.0000
      vertex 10.0000 0.0000 0.0000
    endloop
  endfacet
  facet normal -0.6092 0.6092 0.5077
    outer loop
      vertex 0.0000 0.0000 -12.0000
      vertex 0.0000 -10.0000 0.0000
      vertex 10.0000 0.0000 0.0000
    endloop
  endfacet
  facet normal 0.6092 0.6092 0.5077
    outer loop
      vertex 0.0000 0.0000 -12.0000
      vertex -10.0000 0.0000 0.0000
      vertex 0.0000 -10.0000 0.0000
    endloop
  endfacet
  facet normal 0.6092 -0.6092 0.5077
    outer loop
      vertex 0.0000 0.0000 -12.0000
      vertex 0.0000 10.0000 0.0000
      vertex -10.0000 0.0000 0.0000
    endloop
  endfacet
  facet normal -0.6092 -0.6092 0.5077
    outer loop
      vertex 0.0000 0.0000 -12.0000
      vertex 10.0000 0.0000 0.0000
      vertex 0.0000 10.0000 0.0000
    endloop
  endfacet
endsolid