solid collaborative_crystal
  facet normal -0.1509 -0.9805 -0.1257
    outer loop
      vertex 0.0000 0.0000 12.0000
      vertex 10.0000 0.0000 0.0000
      vertex 0.0000 -10.0000 90.0000
    endloop
  endfacet
  facet normal -0.0508 -0.9906 -0.1270
    outer loop
      vertex 0.0000 0.0000 12.0000
      vertex 0.0000 -10.0000 90.0000
      vertex -10.0000 0.0000 16.0000
    endloop
  endfacet
  facet normal -0.2481 -0.7442 -0.6202
    outer loop
      vertex 0.0000 0.0000 12.0000
      vertex -10.0000 0.0000 16.0000
      vertex 0.0000 10.0000 0.0000
    endloop
  endfacet
  facet normal -0.6092 -0.6092 -0.5077
    outer loop
      vertex 0.0000 0.0000 12.0000
      vertex 0.0000 10.0000 0.0000
      vertex 10.0000 0.0000 0.0000
    endloop
  endfacet
  facet normal -0.0503 0.9932 0.1048
    outer loop
      vertex -15.0000 0.0000 -12.0000
      vertex 0.0000 -10.0000 90.0000
      vertex 10.0000 0.0000 0.0000
    endloop
  endfacet
  facet normal 0.9386 -0.3017 -0.1676
    outer loop
      vertex -15.0000 0.0000 -12.0000
      vertex -10.0000 0.0000 16.0000
      vertex 0.0000 -10.0000 90.0000
    endloop
  endfacet
  facet normal 0.6103 -0.7847 -0.1090
    outer loop
      vertex -15.0000 0.0000 -12.0000
      vertex 0.0000 10.0000 0.0000
      vertex -10.0000 0.0000 16.0000
    endloop
  endfacet
  facet normal -0.3971 -0.3971 0.8274
    outer loop
      vertex -15.0000 0.0000 -12.0000
      vertex 10.0000 0.0000 0.0000
      vertex 0.0000 10.0000 0.0000
    endloop
  endfacet
endsolid